<svg width="1845" height="360" viewBox="0 0 1845 360" fill="none" xmlns="http://www.w3.org/2000/svg">
<path d="M380.002 27.6639C380.002 18.9734 369.68 14.4193 363.261 20.2774L104.603 256.323C100.298 260.252 100.252 267.015 104.502 271.003L182.954 344.604C186.783 348.197 192.74 348.216 196.592 344.647L376.798 177.696C378.841 175.803 380.002 173.145 380.002 170.36V27.6639Z" fill="#2B5250"/>
<path d="M362.569 204.621C369.073 199.15 379.005 203.774 379.005 212.274V333.091C379.005 341.662 368.929 346.261 362.454 340.646L291.73 279.314C287.087 275.287 287.141 268.063 291.845 264.106L362.569 204.621Z" fill="#5AA6A6"/>
<path d="M18.1564 142.457C12.4551 134.614 0.0471446 138.661 0.0674771 148.358L0.455318 333.324C0.47321 341.856 10.482 346.448 16.9617 340.896L99.5718 270.117C103.531 266.725 104.22 260.86 101.154 256.643L18.1564 142.457Z" fill="#2B5250"/>
<path opacity="0.6" d="M2.40278e-05 152.745C-0.0199253 143.049 12.3876 139.002 18.0889 146.845L101.087 261.032C102.9 263.526 103.398 266.596 102.685 269.39L4.87014 204.39C2.55335 202.85 0.985282 200.412 0.543969 197.661L0.0879147 194.821L2.40278e-05 152.745Z" fill="#101010"/>
<path d="M0.00195312 27.6639C0.00195312 18.9734 10.3235 14.4193 16.7428 20.2774L275.4 256.323C279.705 260.252 279.752 267.015 275.502 271.003L197.05 344.604C193.22 348.197 187.264 348.216 183.412 344.647L3.20581 177.696C1.16306 175.803 0.00195312 173.145 0.00195312 170.36V27.6639Z" fill="#7CC1C1"/>
<path d="M218.644 169.009C215.208 164.053 208.199 163.243 203.723 167.285L105.636 255.864C101.311 259.77 101.228 266.532 105.457 270.542L182.945 344.025C186.773 347.655 192.762 347.687 196.629 344.098L277.525 269.006C281.172 265.621 281.775 260.069 278.94 255.979L218.644 169.009Z" fill="#1B2A2A"/>
<path d="M275.607 256.677C279.912 260.606 279.959 267.369 275.709 271.357L229.863 314.368L196.798 345C194.935 346.727 192.578 347.611 190.209 347.66C187.839 347.611 185.482 346.727 183.619 345L150.553 314.368L104.709 271.357C100.458 267.369 100.505 260.606 104.81 256.677L190.209 178.745L275.607 256.677Z" fill="#5AA6A6"/>
<path d="M650.202 130.56C665.562 130.56 678.042 135.44 687.642 145.2C697.402 154.8 702.282 168.8 702.282 187.2V264H685.722V189.12C685.722 174.88 682.282 164 675.402 156.48C668.522 148.96 659.162 145.2 647.322 145.2C635.002 145.2 625.162 149.28 617.802 157.44C610.442 165.6 606.762 177.44 606.762 192.96V264H590.202V189.12C590.202 174.88 586.762 164 579.882 156.48C573.002 148.96 563.562 145.2 551.562 145.2C539.242 145.2 529.402 149.28 522.042 157.44C514.682 165.6 511.002 177.44 511.002 192.96V264H494.202V132.96H511.002V155.52C515.162 147.36 521.082 141.2 528.762 137.04C536.442 132.72 545.002 130.56 554.442 130.56C565.802 130.56 575.722 133.28 584.202 138.72C592.842 144.16 599.082 152.16 602.922 162.72C606.442 152.32 612.442 144.4 620.922 138.96C629.562 133.36 639.322 130.56 650.202 130.56ZM747.993 108.24C744.633 108.24 741.753 107.04 739.353 104.64C736.953 102.24 735.753 99.28 735.753 95.76C735.753 92.24 736.953 89.36 739.353 87.12C741.753 84.72 744.633 83.52 747.993 83.52C751.353 83.52 754.233 84.72 756.633 87.12C759.033 89.36 760.233 92.24 760.233 95.76C760.233 99.28 759.033 102.24 756.633 104.64C754.233 107.04 751.353 108.24 747.993 108.24ZM756.393 132.96V264H739.593V132.96H756.393ZM786.756 198.48C786.756 184.88 789.476 173.04 794.916 162.96C800.356 152.72 807.876 144.88 817.476 139.44C827.076 133.84 838.036 131.04 850.356 131.04C866.516 131.04 879.796 135.04 890.196 143.04C900.756 151.04 907.556 161.92 910.596 175.68H892.596C890.356 166.24 885.476 158.88 877.956 153.6C870.596 148.16 861.396 145.44 850.356 145.44C841.556 145.44 833.636 147.44 826.596 151.44C819.556 155.44 813.956 161.44 809.796 169.44C805.796 177.28 803.796 186.96 803.796 198.48C803.796 210 805.796 219.76 809.796 227.76C813.956 235.76 819.556 241.76 826.596 245.76C833.636 249.76 841.556 251.76 850.356 251.76C861.396 251.76 870.596 249.12 877.956 243.84C885.476 238.4 890.356 230.88 892.596 221.28H910.596C907.556 234.72 900.756 245.52 890.196 253.68C879.636 261.84 866.356 265.92 850.356 265.92C838.036 265.92 827.076 263.2 817.476 257.76C807.876 252.16 800.356 244.32 794.916 234.24C789.476 224 786.756 212.08 786.756 198.48ZM958.424 156.24C962.104 148.08 967.704 141.76 975.224 137.28C982.904 132.8 992.264 130.56 1003.3 130.56V148.08H998.744C986.584 148.08 976.824 151.36 969.464 157.92C962.104 164.48 958.424 175.44 958.424 190.8V264H941.624V132.96H958.424V156.24ZM1085.94 265.92C1073.62 265.92 1062.5 263.2 1052.58 257.76C1042.82 252.16 1035.06 244.32 1029.3 234.24C1023.7 224 1020.9 212.08 1020.9 198.48C1020.9 184.88 1023.78 173.04 1029.54 162.96C1035.3 152.72 1043.14 144.88 1053.06 139.44C1062.98 133.84 1074.1 131.04 1086.42 131.04C1098.74 131.04 1109.86 133.84 1119.78 139.44C1129.86 144.88 1137.7 152.72 1143.3 162.96C1149.06 173.04 1151.94 184.88 1151.94 198.48C1151.94 211.92 1149.06 223.76 1143.3 234C1137.54 244.24 1129.62 252.16 1119.54 257.76C1109.46 263.2 1098.26 265.92 1085.94 265.92ZM1085.94 251.28C1094.58 251.28 1102.58 249.36 1109.94 245.52C1117.3 241.52 1123.22 235.6 1127.7 227.76C1132.34 219.76 1134.66 210 1134.66 198.48C1134.66 186.96 1132.42 177.28 1127.94 169.44C1123.46 161.44 1117.54 155.52 1110.18 151.68C1102.82 147.68 1094.82 145.68 1086.18 145.68C1077.54 145.68 1069.54 147.68 1062.18 151.68C1054.82 155.52 1048.9 161.44 1044.42 169.44C1040.1 177.28 1037.94 186.96 1037.94 198.48C1037.94 210 1040.1 219.76 1044.42 227.76C1048.9 235.6 1054.74 241.52 1061.94 245.52C1069.3 249.36 1077.3 251.28 1085.94 251.28ZM1227.68 265.92C1212.64 265.92 1200.32 262.48 1190.72 255.6C1181.28 248.56 1176 239.04 1174.88 227.04H1192.16C1192.96 234.4 1196.4 240.4 1202.48 245.04C1208.72 249.52 1217.04 251.76 1227.44 251.76C1236.56 251.76 1243.68 249.6 1248.8 245.28C1254.08 240.96 1256.72 235.6 1256.72 229.2C1256.72 224.72 1255.28 221.04 1252.4 218.16C1249.52 215.28 1245.84 213.04 1241.36 211.44C1237.04 209.68 1231.12 207.84 1223.6 205.92C1213.84 203.36 1205.92 200.8 1199.84 198.24C1193.76 195.68 1188.56 191.92 1184.24 186.96C1180.08 181.84 1178 175.04 1178 166.56C1178 160.16 1179.92 154.24 1183.76 148.8C1187.6 143.36 1193.04 139.04 1200.08 135.84C1207.12 132.64 1215.12 131.04 1224.08 131.04C1238.16 131.04 1249.52 134.64 1258.16 141.84C1266.8 148.88 1271.44 158.64 1272.08 171.12H1255.28C1254.8 163.44 1251.76 157.28 1246.16 152.64C1240.72 147.84 1233.2 145.44 1223.6 145.44C1215.12 145.44 1208.24 147.44 1202.96 151.44C1197.68 155.44 1195.04 160.4 1195.04 166.32C1195.04 171.44 1196.56 175.68 1199.6 179.04C1202.8 182.24 1206.72 184.8 1211.36 186.72C1216 188.48 1222.24 190.48 1230.08 192.72C1239.52 195.28 1247.04 197.76 1252.64 200.16C1258.24 202.56 1263.04 206.08 1267.04 210.72C1271.04 215.36 1273.12 221.52 1273.28 229.2C1273.28 236.24 1271.36 242.56 1267.52 248.16C1263.68 253.6 1258.32 257.92 1251.44 261.12C1244.56 264.32 1236.64 265.92 1227.68 265.92ZM1313.31 108.24C1309.95 108.24 1307.07 107.04 1304.67 104.64C1302.27 102.24 1301.07 99.28 1301.07 95.76C1301.07 92.24 1302.27 89.36 1304.67 87.12C1307.07 84.72 1309.95 83.52 1313.31 83.52C1316.67 83.52 1319.55 84.72 1321.95 87.12C1324.35 89.36 1325.55 92.24 1325.55 95.76C1325.55 99.28 1324.35 102.24 1321.95 104.64C1319.55 107.04 1316.67 108.24 1313.31 108.24ZM1321.71 132.96V264H1304.91V132.96H1321.71ZM1404.87 265.92C1389.83 265.92 1377.51 262.48 1367.91 255.6C1358.47 248.56 1353.19 239.04 1352.07 227.04H1369.35C1370.15 234.4 1373.59 240.4 1379.67 245.04C1385.91 249.52 1394.23 251.76 1404.63 251.76C1413.75 251.76 1420.87 249.6 1425.99 245.28C1431.27 240.96 1433.91 235.6 1433.91 229.2C1433.91 224.72 1432.47 221.04 1429.59 218.16C1426.71 215.28 1423.03 213.04 1418.55 211.44C1414.23 209.68 1408.31 207.84 1400.79 205.92C1391.03 203.36 1383.11 200.8 1377.03 198.24C1370.95 195.68 1365.75 191.92 1361.43 186.96C1357.27 181.84 1355.19 175.04 1355.19 166.56C1355.19 160.16 1357.11 154.24 1360.95 148.8C1364.79 143.36 1370.23 139.04 1377.27 135.84C1384.31 132.64 1392.31 131.04 1401.27 131.04C1415.35 131.04 1426.71 134.64 1435.35 141.84C1443.99 148.88 1448.63 158.64 1449.27 171.12H1432.47C1431.99 163.44 1428.95 157.28 1423.35 152.64C1417.91 147.84 1410.39 145.44 1400.79 145.44C1392.31 145.44 1385.43 147.44 1380.15 151.44C1374.87 155.44 1372.23 160.4 1372.23 166.32C1372.23 171.44 1373.75 175.68 1376.79 179.04C1379.99 182.24 1383.91 184.8 1388.55 186.72C1393.19 188.48 1399.43 190.48 1407.27 192.72C1416.71 195.28 1424.23 197.76 1429.83 200.16C1435.43 202.56 1440.23 206.08 1444.23 210.72C1448.23 215.36 1450.31 221.52 1450.47 229.2C1450.47 236.24 1448.55 242.56 1444.71 248.16C1440.87 253.6 1435.51 257.92 1428.63 261.12C1421.75 264.32 1413.83 265.92 1404.87 265.92ZM1503.93 147.12V228.48C1503.93 236.48 1505.45 242 1508.49 245.04C1511.53 248.08 1516.89 249.6 1524.57 249.6H1539.93V264H1521.93C1510.09 264 1501.29 261.28 1495.53 255.84C1489.77 250.24 1486.89 241.12 1486.89 228.48V147.12H1468.65V132.96H1486.89V100.08H1503.93V132.96H1539.93V147.12H1503.93ZM1686.2 191.76C1686.2 197.52 1686.04 201.92 1685.72 204.96H1577C1577.48 214.88 1579.88 223.36 1584.2 230.4C1588.52 237.44 1594.2 242.8 1601.24 246.48C1608.28 250 1615.96 251.76 1624.28 251.76C1635.16 251.76 1644.28 249.12 1651.64 243.84C1659.16 238.56 1664.12 231.44 1666.52 222.48H1684.28C1681.08 235.28 1674.2 245.76 1663.64 253.92C1653.24 261.92 1640.12 265.92 1624.28 265.92C1611.96 265.92 1600.92 263.2 1591.16 257.76C1581.4 252.16 1573.72 244.32 1568.12 234.24C1562.68 224 1559.96 212.08 1559.96 198.48C1559.96 184.88 1562.68 172.96 1568.12 162.72C1573.56 152.48 1581.16 144.64 1590.92 139.2C1600.68 133.76 1611.8 131.04 1624.28 131.04C1636.76 131.04 1647.64 133.76 1656.92 139.2C1666.36 144.64 1673.56 152 1678.52 161.28C1683.64 170.4 1686.2 180.56 1686.2 191.76ZM1669.16 191.28C1669.32 181.52 1667.32 173.2 1663.16 166.32C1659.16 159.44 1653.64 154.24 1646.6 150.72C1639.56 147.2 1631.88 145.44 1623.56 145.44C1611.08 145.44 1600.44 149.44 1591.64 157.44C1582.84 165.44 1577.96 176.72 1577 191.28H1669.16ZM1709.26 198.48C1709.26 184.88 1711.98 173.04 1717.42 162.96C1722.86 152.72 1730.38 144.88 1739.98 139.44C1749.58 133.84 1760.54 131.04 1772.86 131.04C1789.02 131.04 1802.3 135.04 1812.7 143.04C1823.26 151.04 1830.06 161.92 1833.1 175.68H1815.1C1812.86 166.24 1807.98 158.88 1800.46 153.6C1793.1 148.16 1783.9 145.44 1772.86 145.44C1764.06 145.44 1756.14 147.44 1749.1 151.44C1742.06 155.44 1736.46 161.44 1732.3 169.44C1728.3 177.28 1726.3 186.96 1726.3 198.48C1726.3 210 1728.3 219.76 1732.3 227.76C1736.46 235.76 1742.06 241.76 1749.1 245.76C1756.14 249.76 1764.06 251.76 1772.86 251.76C1783.9 251.76 1793.1 249.12 1800.46 243.84C1807.98 238.4 1812.86 230.88 1815.1 221.28H1833.1C1830.06 234.72 1823.26 245.52 1812.7 253.68C1802.14 261.84 1788.86 265.92 1772.86 265.92C1760.54 265.92 1749.58 263.2 1739.98 257.76C1730.38 252.16 1722.86 244.32 1717.42 234.24C1711.98 224 1709.26 212.08 1709.26 198.48Z" fill="#1A1A1A"/>
</svg>
